<?xml version="1.0" encoding="UTF-8"?>
<svg width="512" height="512" version="1.1" viewBox="0 0 512 512" xmlns="http://www.w3.org/2000/svg">
 <path d="m354.32 10.197c13.596 13.596 13.596 35.565 0 49.161l-73.741 73.741 98.321 98.321 73.741-73.741c13.596-13.596 35.565-13.596 49.161 0 13.596 13.596 13.596 35.565 0 49.161l-73.741 73.741 49.161 49.161c13.596 13.596 13.596 35.565 0 49.161-13.596 13.596-35.565 13.596-49.161-1e-5l-49.161 49.161c-73.05 73.05-186.89 80.577-268.31 22.506l-51.235 51.235c-13.596 13.596-35.565 13.596-49.161 0-13.596-13.596-13.596-35.565 0-49.161l51.235-51.235c-58.071-81.422-50.543-195.26 22.506-268.31l49.161-49.161c-13.596-13.596-13.596-35.565-1e-5 -49.161 13.596-13.596 35.565-13.596 49.161 0l49.161 49.161 73.741-73.741c13.596-13.596 35.565-13.596 49.161 2e-6z" stroke-width="1.0863"/>
</svg>
