<?xml version="1.0" encoding="UTF-8"?>
<svg id="root" width="512" height="512" fill="currentColor" version="1.1" viewBox="0 0 512 512" xmlns="http://www.w3.org/2000/svg">
 <g transform="matrix(1.2298 0 0 1.2298 -58.836 -58.836)" fill="#f02d3a">
  <path d="m176.87 326h-126.61a2.2688 2.272 0 0 1-1.9692-3.4008l55.365-96.23a2.2688 2.272 0 0 0-1.9692-3.4008h-47.303a2.2688 2.272 0 0 1-2.2474-1.9933l-4.2808-34.658a2.2617 2.2648 0 0 1 2.2474-2.5506h124.35a2.2688 2.272 0 0 1 1.9692 3.4079l-55.365 96.223a2.2688 2.272 0 0 0 1.9692 3.4079h49.565a2.276 2.2791 0 0 1 2.2546 1.9933l4.2808 34.658a2.2617 2.2648 0 0 1-2.2546 2.5434z"/>
  <path d="m327.32 255.99a82.955 83.069 0 0 1-1.2129 13.225 2.276 2.2791 0 0 1-2.2546 1.8933h-99.464a2.2831 2.2863 0 0 0-1.9549 3.4508 33.79 33.837 0 0 0 29.152 16.84c10.281 0 19.863-4.5296 26.691-13.275a2.2831 2.2863 0 0 1 2.1975-0.8645l38.099 6.8516a2.2617 2.2648 0 0 1 1.641 3.2151c-0.85619 1.7861-1.9335 4.0009-2.5614 5.1226l-0.63496 1.0431c-0.58505 0.98595-1.1844 1.9505-1.8978 3.0293-0.88472 1.3575-1.6981 2.5292-2.5043 3.5723l-0.48516 0.65729h-0.0357c-0.27113 0.35723-0.54223 0.71447-0.81337 1.0574l-0.42093 0.52156c-0.53509 0.65728-1.0417 1.2646-1.5554 1.8647l-0.44947 0.52155c-0.84903 0.95737-1.6766 1.8576-2.597 2.8078l-0.50655 0.52153c-0.59932 0.593-1.2058 1.186-1.8122 1.7647l-0.18554 0.17869c-0.66352 0.63587-1.3413 1.2503-2.0405 1.8504l-0.75629 0.64302-0.85615-0.75018 0.71348 0.84305c-1.0631 0.90021-2.0691 1.7076-3.0679 2.4649l-0.85616 0.63587c-1.1701 0.86447-2.3687 1.6932-3.5673 2.4863l-0.34961 0.22862c-1.4269 0.90021-2.8182 1.7433-4.2808 2.5363l-0.40668 0.23572-1.0345 0.55012-0.24257 0.12851c-0.66354 0.34294-1.2557 0.64301-1.8407 0.9288l-0.3496 0.16424c-1.3485 0.65017-2.6113 1.2146-3.867 1.7361l-0.25686 0.10721c-0.85615 0.34292-1.6053 0.63585-2.3687 0.91448l-0.92036 0.33582c-0.93465 0.33579-1.8693 0.65014-2.811 0.95021l-0.17135 0.0499c-1.0131 0.31435-2.0762 0.61442-3.2962 0.93592l-0.85618 0.22153c-2.1404 0.53582-4.3379 0.96451-6.4925 1.3074l-0.8205 0.1285c-2.2902 0.32867-4.5519 0.5573-6.7993 0.67873l-0.83474 0.0499c-1.3485 0.057-2.4472 0.0786-3.4817 0.0786-1.0345 0-2.1975 0-3.496-0.0857-0.25683 0-0.52084 0-0.77056-0.0428h-0.25686c-0.85615-0.0499-1.7052-0.11431-2.5542-0.19288h-0.27111l-0.71348-0.0715c-1.2343-0.13586-2.3188-0.26437-3.3105-0.41439h-0.0857l-0.59929-0.0928c-0.92038-0.14295-1.8336-0.30722-2.7469-0.49296l-0.97743-0.20709c-0.81335-0.17159-1.6267-0.35723-2.4329-0.55012l-0.97029-0.24282c-1.1986-0.30722-2.2474-0.60013-3.2106-0.9002-1.0702-0.32865-2.1404-0.71447-3.1606-1.0574l-0.71348-0.27151-0.18554-0.0715c-0.76341-0.28579-1.5268-0.57157-2.2831-0.88594l-0.20683-0.0857c-0.23547-0.0857-0.46374-0.18579-0.71345-0.28579q-1.5126-0.64299-2.9966-1.336l-0.10696-0.057c-0.89182-0.42154-1.8621-0.9145-2.8539-1.4289l-0.71346-0.36438-0.17844-0.0999c-0.71347-0.38582-1.4269-0.78592-2.0976-1.1931l-0.84188-0.49299c-0.92039-0.56441-1.8408-1.136-2.7326-1.7361a75.499 75.603 0 0 1-22.346-23.155c-0.47088-0.76447-0.93465-1.5361-1.377-2.322l-0.19263-0.36438c-0.42096-0.71444-0.82049-1.5218-1.22-2.2934l-0.22128-0.42154-0.35672-0.71444a73.487 73.589 0 0 1-3.6672-9.1736c-0.59217-1.779-1.0416-3.2793-1.4269-4.7082-0.30679-1.1646-0.59217-2.3791-0.849-3.5723a74.914 75.018 0 0 1-1.4269-11.174c-0.0715-1.2646-0.0999-2.5577-0.0999-3.8295s0-2.572 0.0999-3.8366a73.173 73.274 0 0 1 3.6886-19.49c0.71348-2.079 1.4269-3.9366 2.1404-5.6728 0.42808-1.0002 0.8847-1.9862 1.3556-2.965l0.34246-0.71445 0.27826-0.56442c0.11406-0.22862 0.22127-0.46439 0.34245-0.71445l0.37815-0.71445 0.6564-1.2003c0.52797-0.94309 1.0631-1.8862 1.6338-2.8007a75.478 75.582 0 0 1 22.346-23.148c0.89185-0.60014 1.8122-1.1788 2.7326-1.7361l0.84188-0.50013c0.71348-0.40723 1.4269-0.80018 2.0976-1.1931l0.18553-0.10002 0.67779-0.36437c0.95605-0.50726 1.9264-1.0074 2.911-1.4718 0.98459-0.4644 2.0048-0.92165 3.0108-1.3503l0.92751-0.37152c0.75626-0.30722 1.5125-0.60014 2.2759-0.88592l0.22127-0.0786 0.71348-0.26434c1.0417-0.36437 2.0905-0.71445 3.1464-1.0502 1.0559-0.33579 2.1404-0.62158 3.232-0.90736l0.71345-0.17147 0.24967-0.0643c0.81337-0.20006 1.6196-0.37866 2.4329-0.55727l0.57076-0.11431c0.97746-0.20721 2.5899-0.50012 3.5673-0.65015h0.25684c0.99173-0.15006 2.0833-0.28578 3.3176-0.41438l0.71346-0.0715h0.27111c0.84188-0.0715 1.6909-0.13576 2.5471-0.18577h0.20683l0.82046-0.05c1.3056-0.0571 2.4472-0.0858 3.5031-0.0858 1.0559 0 2.1404 0 3.4389 0.0858l0.83476 0.0428c2.2831 0.12861 4.5519 0.35723 6.7636 0.71445l0.89896 0.13576c2.1404 0.33579 4.3165 0.77161 6.4212 1.2932l0.92751 0.23578c1.2057 0.31436 2.2688 0.61443 3.2391 0.9145l0.16399 0.0571c0.99174 0.30721 1.9192 0.62158 2.8539 0.95022l0.84903 0.30721c0.85616 0.31436 1.6053 0.61443 2.3544 0.9145l0.37815 0.15006c1.22 0.50726 2.5043 1.086 3.817 1.7147l0.33534 0.1572c0.6421 0.31436 1.2272 0.61443 1.805 0.9145l0.19973 0.10004-0.47089 1.0217 0.59218-0.95736 1.0417 0.55727c1.2842 0.71445 3.3462 1.9433 4.5876 2.7292l0.1569 0.10002c1.3128 0.8502 2.5471 1.7076 3.7457 2.5863l0.19973 0.15005c0.24967 0.17147 0.49228 0.35008 0.71346 0.53584 1.0274 0.77875 2.0262 1.5861 3.0822 2.4792l0.60644 0.5144c0.79193 0.66445 1.5625 1.3646 2.3188 2.0791l0.19263 0.19291c0.60645 0.57156 1.2058 1.1574 1.7979 1.7504l0.45661 0.4644c0.95605 0.9788 1.8051 1.9004 2.597 2.8006l-0.71345 0.86449 0.8633-0.71445 0.39239 0.45725q0.75629 0.89307 1.4983 1.8004l0.47086 0.58586c0.57793 0.71445 1.1487 1.4646 1.6981 2.2148l0.0786 0.10002c0.4495 0.60014 0.89184 1.2146 1.2985 1.8433l0.81337 1.2289c0.3567 0.54298 0.71345 1.0931 1.0559 1.6504l1.3912 2.3077a73.159 73.26 0 0 1 9.696 36.487zm-44.442-18.876c-1.7623-10.481-13.87-18.654-29.252-18.654-13.998 0-27.283 8.1162-29.252 18.612a2.2831 2.2863 0 0 0 2.2403 2.7006h54.052a2.276 2.2791 0 0 0 2.2118-2.6578z"/>
  <path d="m464.16 243.69v80.019a2.2617 2.2648 0 0 1-2.2617 2.272h-42.358a2.2688 2.272 0 0 1-2.2688-2.272v-77.775c0-5.2727-0.29967-11.324-2.5043-16.218a14.305 14.325 0 0 0-3.9883-5.0583c-2.6541-2.0862-6.0859-3.0936-10.488-3.0936-8.1692 0-14.505 2.8078-16.51 7.3446-2.2974 4.9154-2.2974 11.631-2.2974 17.025v77.797a2.2688 2.272 0 0 1-2.2688 2.272h-42.358a2.2688 2.272 0 0 1-2.2688-2.272v-137.69a2.2688 2.272 0 0 1 2.2688-2.2719h39.69a2.2688 2.272 0 0 1 2.2617 2.2719v3.8366a1.1344 1.136 0 0 0 1.7694 0.93593c31.992-22.048 63.135 2.4292 63.456 2.6935a35.952 36.001 0 0 1 3.2035 2.815c14.483 14.589 16.923 26.406 16.923 47.368z"/>
 </g>
</svg>
